<?xml version="1.0" encoding="UTF-8" standalone="no"?>
<!-- Created with Inkscape (http://www.inkscape.org/) -->

<svg
   xmlns:dc="http://purl.org/dc/elements/1.1/"
   xmlns:cc="http://creativecommons.org/ns#"
   xmlns:rdf="http://www.w3.org/1999/02/22-rdf-syntax-ns#"
   xmlns:svg="http://www.w3.org/2000/svg"
   xmlns="http://www.w3.org/2000/svg"
   xmlns:sodipodi="http://sodipodi.sourceforge.net/DTD/sodipodi-0.dtd"
   xmlns:inkscape="http://www.inkscape.org/namespaces/inkscape"
   id="svg2985"
   version="1.1"
   inkscape:version="0.48.4 r9939"
   width="265"
   height="265"
   sodipodi:docname="uc-rev-cmyk.svg">
  <metadata
     id="metadata2991">
    <rdf:RDF>
      <cc:Work
         rdf:about="">
        <dc:format>image/svg+xml</dc:format>
        <dc:type
           rdf:resource="http://purl.org/dc/dcmitype/StillImage" />
        <dc:title />
      </cc:Work>
    </rdf:RDF>
  </metadata>
  <defs
     id="defs2989" />
  <sodipodi:namedview
     pagecolor="#ffffff"
     bordercolor="#666666"
     borderopacity="1"
     objecttolerance="10"
     gridtolerance="10"
     guidetolerance="10"
     inkscape:pageopacity="0"
     inkscape:pageshadow="2"
     inkscape:window-width="1103"
     inkscape:window-height="594"
     id="namedview2987"
     showgrid="false"
     inkscape:zoom="0.89056604"
     inkscape:cx="93.165331"
     inkscape:cy="132.5"
     inkscape:window-x="0"
     inkscape:window-y="0"
     inkscape:window-maximized="0"
     inkscape:current-layer="svg2985" />
  <path
     style="fill:#ffffff;fill-opacity:1"
     d="m -153.82662,262.16722 c -27.34894,-4.59399 -51.53831,-17.31467 -71.89969,-37.81053 -22.87999,-23.03111 -34.79843,-48.13126 -38.52173,-81.12646 -2.29307,-20.32078 1.56695,-43.343639 10.81267,-64.491539 19.36324,-44.28987 60.22962,-73.7939403 109.50506,-79.05873932 34.55213,-3.69169698 73.851899,9.81370002 100.442929,34.51729332 43.27430981,40.202676 55.39037,100.368025 30.83307,153.109335 -6.44547,13.84281 -13.65624,23.75868 -26.92928,37.03173 -17.43738,17.43738 -33.23983,27.20779 -54.59962,33.75811 -17.871079,5.48045 -41.607089,7.10049 -59.643409,4.0708 z m 52.75297,-7.70556 c 45.021659,-11.88381 79.387479,-46.20802 91.6644188,-91.55343 2.43781,-9.00417 2.61962,-11.14897 2.64213,-31.16954 0.0227,-20.19023 -0.13878,-22.10936 -2.65073,-31.50276 C -14.296331,81.992861 -19.896051,70.446891 -31.249531,55.221514 -61.796401,14.257171 -113.12661,-4.3583193 -162.18321,7.7369147 -186.68228,13.777326 -204.27513,23.792749 -222.7334,42.20749 c -17.40573,17.364682 -27.70132,35.852131 -33.98805,61.0312 -2.47291,9.90427 -2.74608,12.74321 -2.74242,28.5 0.004,15.68686 0.28148,18.58789 2.68152,28 7.62236,29.89222 22.23281,52.65666 45.61724,71.0759 15.56915,12.26337 34.03226,21.15377 50.4819,24.30815 4.4,0.84375 8.9,1.75126 10,2.0167 1.1,0.26544 10.55,0.34225 21,0.17068 16.51691,-0.27118 20.25586,-0.64344 28.60956,-2.84846 z m -26.99527,-2.35547 c -2.92178,-2.04649 -6.06341,-8.82735 -6.09233,-13.14962 -0.0268,-4.01313 2.34033,-9.91017 5.20008,-12.95423 1.73159,-1.84319 3.19603,-2.26365 7.88418,-2.26365 5.14072,0 5.96691,0.29464 7.71129,2.75 3.35127,4.71719 5.18249,10.2882 5.18249,15.76637 0,4.43768 -0.45919,5.76368 -2.90121,8.37787 -2.60891,2.79285 -3.49325,3.10576 -8.77749,3.10576 -3.81687,0 -6.69312,-0.57213 -8.20701,-1.6325 z m 11.7513,-6.5332 c 0.88054,-2.38033 -0.48817,-11.66359 -1.98692,-13.47624 -1.62255,-1.96236 -4.84076,-2.25312 -6.50608,-0.5878 -2.01076,2.01076 -1.42989,9.96714 0.99821,13.6729 2.13676,3.26111 6.35175,3.48109 7.49479,0.39114 z m -55.34166,3.13698 c -5.93694,-1.83378 -8.67347,-9.35227 -4.47446,-12.29338 1.48812,-1.04232 1.88378,-2.09566 1.44454,-3.84573 -1.36165,-5.42527 4.4603,-12.83217 10.0863,-12.83217 4.32063,0 10.95923,3.2711 12.50668,6.16254 2.73439,5.10925 -1.45427,17.8517 -6.93125,21.08578 -3.5647,2.10491 -8.99654,2.84581 -12.63181,1.72296 z m 8.46625,-6.45945 c 0.98853,-1.1911 0.96307,-1.57275 -0.12756,-1.91192 -0.74944,-0.23307 -2.89227,-0.9134 -4.76184,-1.51184 -4.23508,-1.35562 -4.10078,-1.36512 -4.10078,0.28996 0,1.64061 3.82819,4.49542 6.12755,4.56952 0.89516,0.0289 2.18334,-0.61723 2.86263,-1.43572 z m 4.00982,-11.47665 c 0,-3.28625 -7.22488,-5.7147 -8.28618,-2.78518 -0.73653,2.03306 2.37576,4.75 5.44117,4.75 2.16136,0 2.84501,-0.47214 2.84501,-1.96482 z m 72.782939,8.71482 c -1.20681,-0.94323 -1.37268,-1.83369 -0.67586,-3.62837 0.8055,-2.07459 1.38649,-2.30322 4.54877,-1.79005 4.9149,0.79758 7.34415,-0.66858 7.34415,-4.43251 0,-3.31347 -1.54584,-6.89907 -2.97436,-6.89907 -0.4972,0 -3.00741,1.82049 -5.57824,4.04553 -2.57083,2.22504 -5.1857,3.89262 -5.81082,3.70573 -0.62512,-0.18688 -2.38806,-2.79487 -3.91765,-5.79552 -1.52959,-3.00066 -3.21709,-5.60574 -3.75,-5.78907 -1.14693,-0.39457 -1.31739,-3.16667 -0.19472,-3.16667 0.42582,0 4.32763,-2.025 8.67069,-4.5 4.34307,-2.475 8.22152,-4.5 8.6188,-4.5 1.15039,0 2.0336,3.11807 1.42572,5.03333 -0.30576,0.96337 -1.90816,2.31169 -3.56089,2.99627 -2.88183,1.1937 -4.92853,3.64575 -4.92853,5.90466 0,1.7213 1.64195,1.2379 4.78854,-1.40978 2.7741,-2.33425 3.19222,-2.4033 7.32673,-1.21 3.41832,0.9866 4.75985,2.02812 6.0867,4.72552 3.5615,7.24032 1.63834,12.76625 -5.58447,16.04625 -4.78788,2.17426 -9.55953,2.44188 -11.83456,0.66375 z m -121.268409,-8.70421 c -0.44469,-1.4011 0.80991,-3.77404 4.43261,-8.38385 2.77907,-3.5363 5.05286,-7.13139 5.05286,-7.98908 0,-0.8577 -1.00711,-2.26486 -2.23803,-3.12703 -3.34618,-2.34375 -1.21777,-5.1453 3.61181,-4.75408 1.98092,0.16046 4.52419,-0.20197 5.65172,-0.8054 2.42976,-1.30037 5.55726,-0.51605 6.36811,1.597 0.35024,0.9127 -1.72511,4.5463 -5.26145,9.21193 -3.2119,4.2376 -7.09039,9.61722 -8.61888,11.95472 -2.17502,3.32625 -3.38758,4.25 -5.57878,4.25 -1.8996,0 -2.99914,-0.62829 -3.41997,-1.95421 z m 57.48547,-13.07113 c -7.96686,-1.3988 -22.96219,-7.83013 -30.8363,-13.22534 -17.44152,-11.95062 -28.01416,-25.96019 -35.28043,-46.74932 -3.26977,-9.35494 -3.31969,-9.75958 -3.26959,-26.5 l 0.0509,-17 4.05119,-11.22093 c 4.06506,-11.259359 8.16424,-18.495639 15.72251,-27.754919 5.12762,-6.28161 5.07756,-6.23134 11.06174,-11.106571 9.24244,-7.529689 16.49299,-11.627139 27.77907,-15.69857 l 11.22093,-4.04793 16.5,-0.04374 c 17.42782,-0.0462 19.94277,0.409867 34.999999,6.346918 9.2936,3.664455 20.13468,11.075066 28,19.139883 10.72469,10.99671 16.294,20.2449 21.61068,35.885859 2.75188,8.09567 2.88932,9.33244 2.88932,26 l 0,17.5 -3.87436,10.7937 c -2.13089,5.93654 -4.94339,12.36902 -6.25,14.29441 -1.3066,1.92539 -2.37564,3.75442 -2.37564,4.06451 0,1.30004 -10.48412,13.59877 -15.29345,17.94045 -11.74092,10.59928 -28.795939,19.17899 -42.706549,21.48399 -6.52666,1.08147 -27.61908,1.01795 -34,-0.1024 z m 8.78504,-7.29807 c -3.69696,-3.42623 -5.47517,-10.4136 -6.87562,-27.01736 l -1.25175,-14.84076 -2.66468,0.53293 c -1.46557,0.29312 -9.60105,0.79594 -18.07883,1.11738 -16.9688,0.64338 -32.91416,2.38723 -32.91416,3.59963 0,1.3032 6.92657,10.11598 12.36609,15.73356 11.6166,11.99686 34.09933,22.81682 48.02993,23.11472 l 3.89603,0.0833 -2.50701,-2.32341 z m 35.65305,-1.49024 c 4.91596,-1.74324 10.540959,-4.19426 12.499999,-5.44671 1.95905,-1.25245 4.91191,-2.94238 6.56191,-3.7554 1.65,-0.81302 7.05136,-5.52957 12.00301,-10.48123 4.95166,-4.95165 9.66821,-10.35301 10.48123,-12.00301 0.81302,-1.65 2.50295,-4.60286 3.7554,-6.56191 1.25245,-1.95904 3.72278,-7.58404 5.48962,-12.5 2.99571,-8.33509 3.23693,-9.98593 3.57554,-24.46978 0.42821,-18.31676 -0.62167,-23.69447 -7.34806,-37.638339 -11.78722,-24.43504 -32.15843,-40.262873 -58.940219,-45.794803 -9.85039,-2.034655 -10.32782,-1.998882 -9.80527,0.734696 0.23866,1.248423 -0.0739,5.410923 -0.69453,9.25 -2.79525,17.290437 -2.96541,16.866847 5.99626,14.926877 3.56786,-0.77235 13.23702,-1.69369 21.48702,-2.04741 13.835499,-0.59321 15.504579,-0.47105 21.499499,1.57345 3.57472,1.21911 6.83033,2.73647 7.23468,3.3719 1.23705,1.94397 0.85164,4.90302 -0.88917,6.82658 -1.50805,1.66638 -3.74985,1.83925 -25.25,1.94706 -12.977249,0.0651 -24.935129,0.40528 -26.573039,0.75601 -4.04111,0.86535 -5.25061,4.45159 -3.54993,10.52581 1.38122,4.933219 3.46845,6.005779 4.57292,2.349859 0.88955,-2.944539 5.2019,-7.535399 8.88349,-9.457229 3.8551,-2.01241 29.282789,-2.32715 34.804719,-0.43081 3.93956,1.35292 7.77062,5.69297 7.76125,8.79241 -0.0123,4.073279 -2.2279,9.452509 -4.50888,10.947059 -1.66764,1.09268 -7.42197,2.00192 -18.59069,2.93748 -19.622639,1.64373 -23.139549,1.17507 -28.618749,-3.81367 -2.16193,-1.96841 -2.24109,-1.97189 -2.84068,-0.12504 -0.33923,1.04489 -0.9737,2.7998 -1.40994,3.8998 -0.43624,1.1 -1.50684,4.475 -2.37911,7.5 -0.87228,3.025 -2.83403,9.325 -4.35945,14 -2.62997,8.06014 -2.77494,9.48323 -2.80144,27.5 -0.0262,17.77947 0.68654,25.46872 3.72137,40.14993 0.58551,2.83246 0.8313,6.37017 0.5462,7.86159 l -0.51837,2.71167 9.63266,-0.43366 c 7.50133,-0.33771 11.61031,-1.13495 18.57075,-3.60318 z m 6.440389,-13.38233 c -1.858159,-1.81721 -5.228719,-5.55365 -7.490129,-8.3032 l -4.11165,-4.99917 -6.38835,2.37876 c -11.78001,4.38641 -13.69828,4.73823 -15.5792,2.85731 -1.45744,-1.45744 -1.50107,-2.01061 -0.331,-4.1969 1.72894,-3.23055 12.90783,-10.54082 16.11906,-10.54082 2.99141,0 6.90279,-2.582 6.90279,-4.5567 0,-1.97582 -3.26648,-1.80417 -10.83909,0.5696 -7.74932,2.42916 -12.16091,2.5931 -12.16091,0.45192 0,-5.04628 8.76589,-11.2238 17.14755,-12.08427 7.74931,-0.79555 8.35922,-1.065 6.76333,-2.98793 -0.97116,-1.17018 -2.31076,-1.42439 -5.13023,-0.97354 -5.48688,0.87739 -8.78756,-0.17047 -8.74885,-2.77749 0.0837,-5.63287 5.20723,-7.74095 20.34184,-8.3696 l 9.873629,-0.41013 -0.56304,2.81907 c -0.30967,1.55049 -0.86776,4.05657 -1.24021,5.56907 -0.52373,2.12685 -0.31855,2.75 0.90548,2.75 2.51431,0 8.6505,-3.24995 8.6505,-4.58162 0,-0.66616 1.59593,-2.61244 3.54652,-4.32508 2.89122,-2.53852 3.90528,-2.92187 5.48819,-2.07472 2.92494,1.56538 3.41699,5.38788 2.23477,17.36107 -1.3493,13.66542 -2.56082,15.2276 -13.39878,17.27692 -4.02016,0.76016 -7.71324,1.78597 -8.20685,2.27958 -0.52997,0.52997 0.41443,3.74369 2.30626,7.84808 3.76854,8.17595 3.74263,11.57513 -0.0916,12.01979 -1.8719,0.21709 -3.58757,-0.64074 -6,-3 z m 11.5043,-31.78799 c 1.77092,-1.76853 -0.27252,-4.01603 -3.6514,-4.01603 -3.7604,0 -5.73138,1.4883 -5.73138,4.32781 0,1.70785 0.48491,1.85034 4.25,1.24881 2.3375,-0.37344 4.64725,-1.07571 5.13278,-1.56059 z M -116.79287,138.8587 c -3.6701,-0.95599 -7.04063,-3.17572 -8.94021,-5.88775 -2.09291,-2.98804 -0.1315,-8.61077 4.14037,-11.86909 2.8243,-2.1542 5.49291,-2.94439 13.70826,-4.0591 11.491949,-1.5593 29.475069,-0.92115 32.302459,1.14628 1.14708,0.83877 1.99361,3.42653 2.50522,7.65825 0.70146,5.80198 0.57065,6.59694 -1.41834,8.62015 -1.25645,1.27806 -4.34045,2.63638 -7.22996,3.18437 -7.08967,1.34452 -31.335869,2.17898 -35.067799,1.20689 z m 24.958779,-10.76675 c 4.20799,-0.3557 7.65088,-1.09617 7.65088,-1.64548 0,-1.37504 -24.858349,-0.24943 -26.298609,1.19083 -1.29032,1.29032 6.51148,1.48054 18.647729,0.45465 z m -110.461339,32.66793 4.67436,-4.97882 5.46893,0.72882 c 3.00791,0.40084 13.79393,0.72881 23.96893,0.72881 l 18.5,0 0.74208,-7.5 c 1.48873,-15.04616 4.7564,-28.42873 8.84796,-36.23643 1.12284,-2.14266 1.18479,-4.76357 0.11259,-4.76357 -0.89918,0 -10.47386,11.76976 -12.20294,15.00058 -0.61853,1.15573 -1.38966,5.26301 -1.71363,9.12728 -0.39677,4.7327 -1.27398,8.03163 -2.68754,10.1071 -3.85344,5.65782 -6.44134,6.81546 -17.8052,7.96478 -10.30471,1.0422 -10.71741,1.00412 -17.59357,-1.62341 -12.72619,-4.86295 -15.20769,-9.91878 -15.18653,-30.94116 l 0.0132,-13.13517 3.88354,-7.001579 c 2.13595,-3.85087 4.7175,-7.71857 5.73678,-8.59488 5.51089,-4.7379 19.24942,-6.94776 27.77869,-4.46823 7.75392,2.25412 12.03777,6.73105 13.65001,14.26524 0.68257,3.189699 1.6472,6.249449 2.14364,6.799449 1.29698,1.43692 12.34303,-10.643199 13.81756,-15.111079 0.9671,-2.93035 0.94093,-3.78474 -0.13636,-4.45053 -0.7483,-0.46248 -1.88391,-0.36696 -2.58841,0.21773 -2.32229,1.92733 -8.11531,2.70811 -9.97943,1.34503 -1.6497,-1.20629 -1.645,-1.48166 0.0911,-5.33168 1.00687,-2.23283 2.93759,-5.09689 4.29049,-6.36458 3.11575,-2.91949 8.65369,-12.79467 10.82607,-19.304887 0.91765,-2.75 2.36626,-5.7875 3.21915,-6.75 1.44368,-1.629219 1.30583,-1.75 -1.99732,-1.75 -5.70145,0 -18.66418,2.998487 -26.66459,6.167946 -41.28615,16.356001 -62.47014,63.93064 -46.7843,105.06737 1.20282,3.15443 2.34746,5.74193 2.54365,5.75 0.19619,0.008 2.46017,-2.22579 5.03107,-4.96413 z m 33.82662,-25.5337 c 2.16413,-1.51582 2.51075,-3.47997 1.56778,-8.88393 l -0.50542,-2.89643 -12.52097,0.66937 c -6.88654,0.36815 -12.88425,0.89387 -13.32824,1.16827 -1.1772,0.72755 1.8574,7.66107 4.24769,9.70523 2.73562,2.33947 17.29776,2.50785 20.53916,0.23749 z m -10.8619,-23.14484 10.35251,-0.65913 -0.64637,-4.04214 c -0.81646,-5.10588 -1.90293,-6.39022 -6.42513,-7.595249 -7.05171,-1.87907 -16.35173,2.055009 -18.21673,7.706029 -1.45661,4.41357 -0.55898,6.65719 2.34537,5.86218 1.23082,-0.33691 6.89648,-0.90917 12.59035,-1.27169 z m 85.147499,-10.29732 7.5,-0.63855 -5.86868,-0.83344 c -5.63336,-0.800019 -16.790929,-0.21077 -18.732699,0.98932 -0.51219,0.31654 -0.6457,1.03756 -0.2967,1.60225 0.39836,0.64456 2.35857,0.74611 5.26631,0.27284 2.54747,-0.41463 8.006769,-1.04122 12.131769,-1.39242 z m 64.30306,71.23139 -7.19695,-7.51972 -4.64913,0.69718 -4.64914,0.69718 0.65861,-3.32568 c 0.94733,-4.78363 2.63255,-8.82568 3.67962,-8.82568 0.49689,0 1.31454,1.08129 1.817,2.40286 0.50246,1.32157 1.46194,2.74178 2.13219,3.15601 2.95011,1.82327 16.10865,-0.32348 22.14117,-3.61222 2.75925,-1.50426 3.02828,-1.17592 2.29704,2.80335 -0.91491,4.97879 -1.69116,5.60348 -6.74698,5.42964 -8.25734,-0.28392 -8.94285,3.25314 -1.41875,7.32036 3.15391,1.70488 3.65799,2.44269 3.41606,5 -0.4921,5.20183 -3.5296,4.08446 -11.48074,-4.22328 z M -244.181,173.98869 c -0.72535,-1.5125 -2.36626,-5.66882 -3.64647,-9.23627 -2.28035,-6.35447 -2.28935,-6.52457 -0.44256,-8.37135 2.44866,-2.44866 4.37855,-1.24711 3.61087,2.24813 -0.53281,2.42586 1.24103,8.55857 2.97277,10.27784 0.37026,0.36759 1.98495,0.21106 3.58819,-0.34783 3.76191,-1.31141 3.94363,-5.4446 0.42331,-9.62826 -2.77522,-3.29817 -2.14781,-4.53835 2.74168,-5.41939 2.44582,-0.44072 2.75,-0.19554 2.75,2.21658 0,4.45139 2.01162,9.01055 3.9757,9.01055 2.59308,0 9.0243,-2.86019 9.0243,-4.01342 0,-2.26685 1.69941,-0.72414 3.04412,2.76342 0.79525,2.0625 1.59815,4.0875 1.78422,4.5 0.18608,0.4125 -1.38668,0.75154 -3.49501,0.75343 -2.10833,0.002 -7.14246,1.35188 -11.18695,3 -4.04448,1.64811 -7.98198,2.99657 -8.75,2.99657 -0.76801,0 -1.39638,0.45 -1.39638,1 0,2.16317 -3.75104,0.84972 -4.99779,-1.75 z m -8.00221,-28.56121 0,-3.40183 8.85341,-0.66835 c 4.86938,-0.36758 9.55922,-0.3975 10.42186,-0.0665 0.86265,0.33103 2.55542,0.0736 3.76172,-0.57194 1.81913,-0.97357 2.0966,-1.76956 1.62653,-4.66623 -0.99221,-6.11426 -1.94526,-6.57944 -12.07831,-5.89529 -4.95681,0.33467 -9.45627,1.05237 -9.9988,1.5949 -0.54252,0.54256 -1.79641,0.98645 -2.78641,0.98645 -1.31632,0 -1.8,-0.77324 -1.8,-2.87756 0,-3.26 2.35575,-5.97387 3.53262,-4.06965 0.50931,0.82407 3.7762,0.94965 11.52911,0.44318 10.70113,-0.69907 10.84617,-0.67898 13.37834,1.8532 2.16712,2.16711 2.55993,3.46379 2.55993,8.45039 0,8.06089 -1.27056,9.05027 -13.13238,10.22613 -5.15219,0.51073 -10.83012,1.18428 -12.61762,1.49677 -3.1411,0.54913 -3.25,0.45418 -3.25,-2.83367 z m 236.588759,-1.51848 0.63434,-3.96693 -9.48026,-0.71077 c -8.18192,-0.61342 -9.85231,-0.46699 -12.1969,1.06924 -2.3093,1.51312 -2.85992,1.56696 -3.67232,0.35908 -1.20729,-1.795 -0.45045,-8.52097 1.17987,-10.48538 1.05679,-1.27336 1.46318,-1.28674 2.83989,-0.0936 1.51376,1.31197 8.84463,2.66398 17.42626,3.21387 4.28491,0.27456 5.78674,-1.55461 3.83818,-4.67476 -2.19703,-3.518 -0.6042,-5.78477 4.12296,-5.86745 0.42943,-0.008 0.65443,5.49885 0.5,12.23635 l -0.28078,12.25004 -2.77279,0.31862 c -2.70635,0.31099 -2.75759,0.22357 -2.13845,-3.64831 z M -237.18321,120.12271 c -3.575,-0.78102 -8.9426,-1.74944 -11.928,-2.15203 l -5.42801,-0.73199 0.25317,-7 c 0.39913,-11.036089 4.6288,-17.360719 10.85095,-16.225449 17.79625,3.24701 19.81857,4.20117 20.76394,9.796759 0.91914,5.4404 -0.276,14.54978 -2.15551,16.42929 -1.78433,1.78434 -3.73988,1.76588 -12.35654,-0.11658 z m 9,-10.85834 c 0,-2.83595 -0.5421,-3.75465 -2.95034,-5 -1.62269,-0.83912 -4.43816,-1.52568 -6.2566,-1.52568 -1.81845,0 -4.78661,-0.42456 -6.59591,-0.94346 -2.99432,-0.85876 -3.37527,-0.71825 -4.2434,1.5651 -1.42719,3.75379 -1.15818,6.08011 0.79625,6.88578 1.98112,0.81668 11.11149,2.16424 16,2.36146 3.0682,0.12379 3.25,-0.0632 3.25,-3.3432 z m 186.024689,8.03925 c -1.19388,-3.14014 -1.59354,-10.83549 -0.64265,-12.37406 1.12168,-1.81492 3.32462,-1.42059 3.87763,0.6941 0.34588,1.32265 1.20106,1.78082 2.86663,1.53583 1.30554,-0.19204 6.34165,-0.86608 11.19137,-1.49787 7.83676,-1.02093 8.91783,-1.41215 9.71799,-3.51672 1.76899,-4.652789 4.64839,-0.92481 6.1489898,7.96115 0.48986,2.90071 -2.5275798,4.32225 -5.6394698,2.65682 -2.23496,-1.19611 -3.86881,-1.14167 -12.0651,0.40207 -5.21404,0.98204 -9.48008,2.15574 -9.48008,2.60821 0,1.13122 -2.9277,3.96554 -4.09618,3.96554 -0.52433,0 -1.36994,-1.09578 -1.87913,-2.43507 z m -2.90782,-20.195619 c -2.76068,-1.93365 -5.11687,-7.12698 -5.11687,-11.27817 0,-1.63521 -0.45,-3.25122 -1,-3.59114 -1.87563,-1.1592 -1.00288,-2.32019 3.31572,-4.41079 2.37365,-1.14906 4.62365,-2.08921 5,-2.08921 1.34463,0 0.65548,3.07383 -0.81572,3.63838 -2.27347,0.87241 -2.02915,9.57278 0.32874,11.70663 2.16674,1.96087 4.81512,2.15672 5.47666,0.40499 0.25964,-0.6875 0.23882,-3.99013 -0.0462,-7.33919 -0.48299,-5.67403 -0.31816,-6.31321 2.41755,-9.375 3.33308,-3.73036 6.82455,-4.24785 10.85269,-1.60851 2.82184,1.84894 3.98447,4.25572 4.90592,10.1558 0.33645,2.1543 0.83144,4.62553 1.09997,5.49163 0.43828,1.41359 -0.4687,2.1479 -5.80218,4.69758 -0.42179,0.20164 -0.47396,-2.1258 -0.11593,-5.17208 0.96724,-8.22976 -2.46266,-14.90117 -5.67255,-11.0335 -0.84993,1.02411 -0.99916,3.76853 -0.5099,9.37735 0.62765,7.19527 0.50066,8.12055 -1.37151,9.99271 -2.56052,2.56052 -9.57368,2.79482 -12.94634,0.43252 z m -181.342639,-5.13428 c -1.37035,-2.07073 -5.25738,-7.20311 -8.63785,-11.40527 -4.01483,-4.99073 -5.93409,-8.19334 -5.53436,-9.23503 0.74392,-1.93861 -0.36024,-1.97483 12.81739,0.42046 6.00568,1.09165 12.39162,1.98481 14.19099,1.98481 4.00031,0 4.76444,1.01982 2.83168,3.77923 -1.38404,1.97599 -1.688,2.01597 -4.95355,0.65153 -4.13802,-1.72897 -7.18103,-0.43549 -8.17292,3.47402 -0.80998,3.1925 0.78075,5.52292 4.03525,5.91164 2.92201,0.34902 3.21741,1.23543 1.49943,4.49932 -2.53362,4.8135 -4.85256,4.79032 -8.07606,-0.0807 z m -0.7284,-13.32067 c 1.36842,-2.5569 1.35835,-2.56707 -3.42612,-3.46091 l -3.88029,-0.72491 2.31835,3.13573 c 2.72843,3.6904 3.48929,3.85058 4.98806,1.05009 z m 170.975149,-3.38908 c -1.07856,-1.29958 -1.03194,-2.21558 0.26964,-5.29825 0.86551,-2.04987 1.76838,-4.402027 2.00639,-5.227027 0.53366,-1.849836 -0.99222,-5 -2.4219,-5 -1.31839,0 -4.79708,4.088769 -4.84184,5.690983 -0.0706,2.527904 -2.3187,2.409744 -5.11453,-0.268835 -3.13569,-3.004178 -3.85936,-6.343763 -1.41874,-6.547148 0.825,-0.06875 1.95,-0.2375 2.5,-0.375 0.55,-0.1375 1.38298,-0.30625 1.85108,-0.375 2.32809,-0.341933 10.95624,-9.918352 11.60009,-12.875 0.38926,-1.7875 1.01679,-3.25 1.39451,-3.25 0.37772,0 3.71697,2.842469 7.42055,6.316599 5.79399,5.435038 6.73163,6.795772 6.71846,9.75 -0.008,1.88837 -0.35508,3.967748 -0.77035,4.62084 -1.03656,1.630174 -5.73973,3.312561 -9.26039,3.312561 -3.05927,0 -3.57956,0.933586 -4.17974,7.499997 -0.31683,3.46629 -3.59854,4.62153 -5.75323,2.02528 z m 12.97902,-17.698007 c 0,-2.712872 -1.80655,-5.82727 -3.3802,-5.82727 -2.13403,0 -4.73595,3.533749 -4.00481,5.439063 0.74492,1.941219 4.23326,3.546107 6.13501,2.822547 0.6875,-0.261573 1.25,-1.357026 1.25,-2.43434 z M -210.20406,68.463961 c -2.85555,-4.102871 -13.23406,-12.971779 -16.42962,-14.039875 -3.1179,-1.042133 -2.40414,-2.983609 2.06664,-5.621432 3.2119,-1.89507 3.8246,-1.937921 9.33358,-0.652763 3.24281,0.756496 6.38072,1.67501 6.97313,2.041142 0.62297,0.385014 1.07712,-0.123577 1.07712,-1.206231 0,-2.299958 -4.98616,-7.246108 -7.30472,-7.246108 -2.36401,0 -2.11371,-1.830348 0.55472,-4.056438 2.98771,-2.492444 3.44605,-2.420733 5.15434,0.806438 0.80063,1.5125 4.75743,6.215009 8.79288,10.450019 6.38642,6.702232 7.07296,7.766338 5.29808,8.211803 -1.1215,0.281481 -5.62925,-0.595967 -10.0172,-1.949883 -8.4355,-2.602797 -11.4781,-3.022527 -11.4781,-1.583413 0,1.3912 10.6529,10.121474 12.35047,10.121474 2.49627,0 2.97702,1.980641 1.00868,4.155637 -3.57106,3.94598 -4.95571,4.05285 -7.38,0.56963 z M -83.933211,52.133978 c -3.4375,-2.562747 -6.25,-5.024565 -6.25,-5.470708 0,-0.446142 0.87393,-1.423294 1.94207,-2.171449 2.50887,-1.757278 8.28457,-10.257752 10.02411,-14.753127 0.74491,-1.925 1.65419,-3.849447 2.02064,-4.276548 1.03243,-1.203308 15.91901,7.546581 18.17066,10.680175 1.05693,1.470919 -0.21814,3.596373 -2.15748,3.596373 -0.98231,0 -2.03724,-0.654669 -2.34429,-1.45482 -0.30705,-0.800151 -2.42301,-2.406143 -4.70215,-3.56887 -3.93274,-2.006337 -4.24093,-2.026218 -6.04872,-0.390193 -1.04766,0.948122 -1.90484,2.317558 -1.90484,3.04319 0,1.537871 5.04491,4.370693 7.78367,4.370693 2.71968,0 3.22436,0.888271 2.01398,3.544758 -1.70397,3.739804 -3.65926,3.729548 -8.06582,-0.04231 -2.25051,-1.926345 -4.43531,-3.502448 -4.85512,-3.502448 -1.21926,0 -3.87671,4.275552 -3.87671,6.237205 0,2.529053 5.78756,5.754624 10.33333,5.759057 5.45464,0.0053 4.22532,2.427514 -1.4115,2.781149 -3.9091,0.245244 -5.14655,-0.262883 -10.67183,-4.382127 z m -96.304639,-7.223626 c -1.52516,-1.19969 -3.73882,-5.11363 -5.49514,-9.715896 -1.61761,-4.238798 -3.50567,-7.923544 -4.19567,-8.188323 -2.29895,-0.882188 -1.29472,-2.87786 2.31413,-4.598798 4.43517,-2.114987 5.42924,-1.541034 5.43905,3.140376 0.004,2.147077 1.36467,6.409877 3.25172,10.190983 3.59781,7.208958 6.51246,8.673074 10.55043,5.299798 l 2.15444,-1.799798 -4.62312,-10.853863 c -3.75779,-8.822279 -4.36277,-11.018732 -3.23216,-11.734687 2.90618,-1.840332 4.61809,-0.980371 5.20117,2.612757 0.31455,1.938314 1.74971,6.46825 3.18924,10.066525 3.5272,8.816595 3.12051,12.361818 -1.68768,14.712114 -5.94774,2.907323 -9.93277,3.176414 -12.86641,0.868812 z m 76.61056,-3.507109 c -1.46235,-1.069294 -1.96344,-3.378179 -2.54961,-11.747705 -0.40125,-5.729264 -1.02674,-11.104756 -1.38999,-11.945538 -0.36325,-0.840781 -0.088,-2.301743 0.61161,-3.246582 1.07434,-1.450857 1.85497,-1.555672 5.02207,-0.674302 4.156369,1.156676 4.421199,1.679918 2.281799,4.508448 -2.417609,3.196369 -1.751339,15.489656 0.83483,15.403274 1.75612,-0.05866 8.07334,-8.618111 8.63812,-11.704128 0.37309,-2.038615 1.15561,-2.825587 3,-3.017066 1.37239,-0.142477 3.17025,0.198334 3.99525,0.757359 1.2956,0.877906 1.22069,1.253871 -0.54977,2.75905 -1.12737,0.958452 -4.57597,4.892641 -7.66354,8.742641 -8.35139,10.413635 -10.007679,11.790113 -12.230769,10.164549 z m -52.88925,-2.331216 c -0.36667,-0.366666 -0.70222,-2.729166 -0.74567,-5.25 -0.096,-5.570561 -2.14196,-17.637629 -3.16366,-18.659323 -1.46913,-1.469136 1.56963,-3.42401 5.32247,-3.42401 3.23292,0 4.27332,0.571499 6.62756,3.640561 1.53595,2.002308 3.69263,4.589808 4.79263,5.75 l 2,2.109439 0.30563,-4.211794 c 0.1681,-2.316487 -0.14834,-5.060049 -0.70319,-6.096804 -1.31826,-2.463178 0.37127,-4.1914033 4.09756,-4.1914033 3.05862,0 3.45028,0.985876 1.58085,3.9793143 -0.97691,1.564268 -0.87987,3.566023 0.48831,10.074004 1.8238,8.675149 1.17672,12.371783 -2.05662,11.749099 -0.90888,-0.175035 -4.08081,-3.346426 -7.04872,-7.047535 -2.96792,-3.701109 -5.85153,-6.447886 -6.40803,-6.103949 -1.48361,0.916922 -0.0559,12.35995 1.79763,14.408099 1.42169,1.570942 1.28725,1.800862 -1.65212,2.825533 -3.72312,1.297885 -4.33321,1.350189 -5.23463,0.448769 z m 28.18508,-1.814918 c -0.32579,-0.32579 0.0195,-2.368151 0.76724,-4.53858 2.02091,-5.865729 2.7815,-14.392229 1.58899,-17.813078 -1.61182,-4.623665 0.24938,-6.5857263 4.8018,-5.0619983 4.93036,1.6502283 5.21826,2.1308523 3.42711,5.7212973 -1.02281,2.05027 -1.69663,6.497866 -1.88047,12.412115 l -0.2865,9.21692 -3.91291,0.327835 c -2.1521,0.180309 -4.17947,0.06128 -4.50526,-0.264511 z"
     id="path3005"
     inkscape:connector-curvature="0" />
  <path
     style="fill:#ffffff"
     d="m 108.80724,202.78594 -0.95253,-0.57602 -1.29804,-2.8378 -1.29803,-2.83781 0,-1.36498 0,-1.36498 -0.62377,-0.99883 -0.62379,-0.99882 1.11774,-4.42184 1.11774,-4.42184 0.37258,-5.82501 c 0.20493,-3.20374 0.44164,-12.33263 0.52604,-20.28642 l 0.15344,-14.46142 -0.79272,0.16368 -0.79271,0.16368 -1.15398,2.82927 -1.15399,2.82926 -1.9587,2.20142 c -4.14762,4.66159 -5.64051,6.52158 -7.14052,8.89635 -1.65869,2.62598 -3.76529,5.35728 -6.12777,7.94494 l -1.458805,1.59785 -0.659375,-0.22378 -0.65939,-0.22378 0.05725,-2.33484 c 0.03154,-1.28417 0.35335,-4.00292 0.71521,-6.04167 l 0.657912,-3.70682 0.69245,-0.79433 c 0.380856,-0.43687 1.768908,-2.99642 3.084568,-5.68788 1.31566,-2.69146 2.9263,-5.64375 3.57918,-6.56063 0.65289,-0.9169 1.76427,-2.8254 2.46975,-4.24111 l 1.28269,-2.57402 0.48218,0 0.48218,0 0,-0.61321 c 0,-0.33725 1.39983,-2.89892 3.11073,-5.6926 5.55958,-9.07809 13.96932,-26.97056 16.13344,-34.325339 l 0.81466,-2.76862 -0.46121,-0.285041 -0.46123,-0.285056 -1.8844,0.898612 -1.88442,0.898613 -0.26947,0.849 -0.26945,0.849 -1.67087,0.98701 -1.67086,0.986996 -2.16901,0.166154 -2.16903,0.166126 -0.84933,-0.643193 c -0.46712,-0.353762 -1.37471,-1.673081 -2.01687,-2.931805 l -1.16756,-2.288599 1.38566,-3.62623 1.38565,-3.626216 1.2371,-0.810583 1.2371,-0.810584 1.73132,-3.598952 c 0.95221,-1.979419 4.87849,-9.079747 8.72505,-15.778506 3.84655,-6.698759 7.17584,-12.775295 7.39839,-13.503419 0.22256,-0.728124 0.57477,-1.443008 0.7827,-1.588633 0.20792,-0.145624 1.36728,-2.151341 2.57635,-4.45713 l 2.19831,-4.192348 0,-2.237935 0,-2.237935 -0.71901,-0.275906 -0.71902,-0.27592 -0.41092,-1.766537 c -0.22599,-0.971595 -0.3622,-1.995728 -0.30268,-2.275854 l 0.10826,-0.509303 -0.9641,-0.705265 -0.96408,-0.705251 0.0207,-5.13999 0.0207,-5.139976 1.56789,-2.779574 1.56788,-2.779588 1.15701,-5.26e-4 c 0.63635,-2.98e-4 1.77254,0.233483 2.52484,0.519519 l 1.36784,0.520044 0.46704,1.200972 c 0.25688,0.66054 1.08508,2.10288 1.84045,3.205196 1.96165,2.862616 3.28837,5.768067 4.01278,8.787787 l 0.6293,2.623209 -0.56988,1.064837 -0.56988,1.064838 0.31115,0.810839 0.31114,0.81084 -0.6392,2.007634 -0.63922,2.007635 -1.13009,1.166618 c -1.84679,1.906479 -2.30805,2.554588 -3.3572,4.717082 -1.10967,2.287205 -6.29757,11.195328 -8.90933,15.298128 -2.71415,4.263655 -12.95791,23.494125 -12.95791,24.325693 0,0.583025 1.18089,0.284373 2.56598,-0.648948 0.77309,-0.520939 2.64565,-1.37494 4.16127,-1.897797 l 2.75565,-0.950654 1.62435,0.959519 1.62435,0.959533 1.1115,2.296043 1.11149,2.296057 -0.6678,5.129164 -0.6678,5.12915 -0.98449,1.405614 c -0.54147,0.773076 -0.98448,1.633441 -0.98448,1.911891 0,0.27846 -0.63763,1.43316 -1.41694,2.566 -1.96528,2.8568 -7.4389,12.66568 -7.87362,14.10973 -0.19679,0.65373 -1.56388,3.43826 -3.03799,6.18786 l -2.68019,4.99925 0.96676,0.56098 c 0.53172,0.30854 1.76404,1.24098 2.73846,2.07209 l 1.77168,1.51111 0,1.03905 c 0,0.57147 0.27435,1.55166 0.60966,2.1782 0.33532,0.62654 1.02465,2.80908 1.53185,4.85011 l 0.92219,3.71094 -0.4579,3.19065 c -0.25184,1.75487 -0.72025,4.38215 -1.04091,5.83839 -0.9347,4.24478 -1.54217,8.20376 -1.86887,12.17956 -0.16753,2.03875 -0.48024,4.42171 -0.69488,5.29546 l -0.39028,1.58863 0.42989,6.61933 c 0.23644,3.64063 0.57727,8.95654 0.75739,11.81313 l 0.32752,5.19379 -0.89625,2.84939 -0.89624,2.84938 -0.6733,0.5588 c -0.37031,0.30733 -1.36549,0.68192 -2.21148,0.83241 l -1.53817,0.27361 -0.95253,-0.576 z m 336.69746,-5.36974 -1.04627,-0.60667 -1.86623,-0.11635 c -1.02644,-0.0639 -3.34187,-0.26328 -5.14542,-0.44287 l -3.27919,-0.32654 -2.54582,-1.27616 c -1.4002,-0.70188 -3.2607,-1.45415 -4.13445,-1.6717 -0.87375,-0.21755 -2.30353,-0.83092 -3.17728,-1.36305 l -1.58863,-0.96751 -1.16023,-0.001 -1.16022,-0.001 -0.28353,-0.45875 c -0.15593,-0.25231 -2.70365,-1.69233 -5.66156,-3.20004 -5.80687,-2.95989 -9.1534,-5.09915 -10.7478,-6.87048 l -1.00878,-1.12046 0.44928,0 c 0.24711,0 2.13083,0.8121 4.18605,1.80468 7.74111,3.73858 11.2504,5.1503 17.98689,7.2358 l 6.93172,2.14592 4.55647,0.30521 4.55645,0.30518 1.99245,-0.37378 1.99243,-0.37379 -0.33697,-7.24563 c -0.18533,-3.98511 -0.60558,-11.53497 -0.9339,-16.77746 l -0.59692,-9.53183 -0.33021,-0.38135 -0.33019,-0.38134 -2.63707,0.69869 c -1.4504,0.38428 -3.59026,1.17392 -4.75526,1.75477 -2.38446,1.18884 -5.42772,2.76697 -6.61933,3.43254 -0.43687,0.24401 -1.15175,0.60518 -1.58863,0.80258 -0.43687,0.19741 -1.06854,0.73205 -1.40371,1.18811 -0.5401,0.73489 -2.62602,1.95806 -4.95085,2.90313 -0.43687,0.1776 -1.9858,0.98503 -3.44204,1.79429 -3.6841,2.04731 -4.26242,2.35192 -8.60301,4.53132 l -3.8371,1.92659 -2.68465,0 -2.68466,0 -1.15666,-0.61762 c -1.42702,-0.76196 -3.35239,-2.79227 -5.26439,-5.55129 -1.67793,-2.42125 -1.76177,-2.978 -0.62037,-4.11941 l 0.83215,-0.83215 3.03809,0 3.03809,0 4.47012,-1.62986 c 2.45856,-0.89642 5.78073,-2.30597 7.38261,-3.13234 l 2.9125,-1.50246 2.04826,-0.34543 2.04827,-0.34543 1.42481,-1.55995 1.42479,-1.55996 1.6367,0.32733 1.63669,0.32734 0.32632,-1.02813 0.32633,-1.02814 2.20034,-0.0862 2.20033,-0.0862 0.91682,-0.82972 0.91684,-0.82971 0.71381,0.14335 c 0.9051,0.18177 6.16352,-1.58058 7.70699,-2.58299 l 1.1682,-0.75868 0.57603,0.35601 0.57602,0.356 0.77113,-0.63997 0.77112,-0.63998 0,-1.29006 0,-1.29008 1.63846,-2.03885 c 0.90115,-1.12136 3.87187,-4.38002 6.60159,-7.24145 l 4.96312,-5.20263 -0.45496,-0.45496 -0.45494,-0.45496 -1.11171,0.59497 c -0.61144,0.32723 -3.55615,1.44896 -6.5438,2.49273 l -5.43208,1.89777 -5.69262,0.10215 -5.69262,0.10215 0,-1.14913 0,-1.14914 1.61955,-2.03792 1.61955,-2.03796 1.95488,-1.30187 c 1.0752,-0.71604 2.60943,-1.74466 3.40943,-2.28583 0.79998,-0.54117 3.93313,-2.2958 6.96252,-3.89917 l 5.50798,-2.91521 4.26624,-1.55698 c 2.34643,-0.85634 6.83875,-2.15686 9.98294,-2.89006 9.28342,-2.1648 14.90065,-4.13651 21.33833,-7.48998 l 4.50113,-2.3447 1.72104,-1.5719 c 0.94656,-0.86453 1.72103,-1.813531 1.72103,-2.108887 l 0,-0.537007 -2.78013,0.0085 -2.78012,0.0085 -3.17728,0.72767 c -1.74749,0.400206 -4.36874,0.885034 -5.82499,1.077364 -1.45626,0.19236 -4.5541,0.7884 -6.88411,1.32454 -2.33,0.53614 -6.17171,1.39042 -8.53714,1.89839 l -4.30078,0.92359 -1.16844,2.81906 c -0.64264,1.55048 -1.8662,3.78229 -2.71902,4.95958 l -1.55058,2.14053 -0.71557,0 -0.71556,0 -0.34351,-3.28648 -0.3435,-3.28647 -0.4077,-0.40769 -0.40769,-0.4077 -3.20751,0.97116 c -1.76414,0.53413 -4.85575,1.81153 -6.87027,2.83865 -2.01451,1.02713 -6.16486,2.89182 -9.22299,4.14377 -3.05812,1.25196 -6.75171,2.90697 -8.20795,3.67783 -1.45625,0.77085 -3.88796,1.84276 -5.4038,2.38203 l -2.75607,0.98047 -1.34792,-0.61415 -1.3479,-0.61416 0,-0.98837 0,-0.98837 0.9267,-0.82714 0.9267,-0.82712 2.38296,-0.62838 c 1.31062,-0.34559 5.71909,-1.89237 9.79659,-3.43727 6.23864,-2.36372 21.00785,-7.42155 23.50018,-8.04784 l 0.7297,-0.18336 -0.31331,-1.9307 -0.31332,-1.93072 -0.54877,-0.54877 -0.54877,-0.548799 0,1.663289 0,1.66331 -0.49406,0.30534 -0.49406,0.30535 -2.28605,-1.26697 -2.28606,-1.26696 -2.64773,0.70472 c -3.21189,0.85488 -3.44205,0.87455 -3.44205,0.29388 l 0,-0.4576 2.51534,-0.93591 c 1.38345,-0.51473 2.73038,-1.131498 2.99319,-1.370579 l 0.47785,-0.434686 -2.59603,-3.989994 -2.59603,-3.989966 -0.56473,-0.0071 -0.56472,-0.0071 -2.84891,4.103979 c -3.18957,4.594728 -6.93616,9.134016 -7.53926,9.134416 l -0.39717,2.4e-4 0,-1.08539 c 0,-0.59697 0.36357,-1.78843 0.80792,-2.64773 l 0.80792,-1.562338 0.72132,0 0.72132,0 1.89925,-3.044896 c 1.04458,-1.674686 2.4384,-4.076133 3.09739,-5.336562 l 1.19814,-2.291667 -0.78742,-0.45219 c -0.43308,-0.248699 -1.21741,-0.77265 -1.74295,-1.164346 l -0.95552,-0.712155 0.352,-0.917309 0.352,-0.917309 1.23668,-0.310387 1.23667,-0.310387 1.20571,0.844511 c 0.66312,0.464479 1.35793,0.844496 1.544,0.844496 0.18608,0 1.74154,-1.846779 3.45656,-4.103979 1.71503,-2.257186 4.16265,-5.234824 5.43914,-6.616982 l 2.3209,-2.513002 -1.7913,-0.746267 c -0.98522,-0.410435 -2.86364,-0.905389 -4.17426,-1.099887 l -2.38295,-0.353649 -1.58865,1.67561 -1.58863,1.675595 -1.92023,0.987905 -1.92023,0.987905 -0.33034,-0.330334 c -0.67625,-0.676253 -0.26452,-1.162569 2.34222,-2.766517 l 2.67257,-1.644453 -0.26712,-0.432201 -0.26712,-0.432214 -2.93499,0.243399 -2.93499,0.243385 0,-1.377227 0,-1.377228 1.38058,-0.904594 1.38058,-0.904593 3.67031,0.629398 3.67031,0.629384 3.83809,-3.311439 c 2.11095,-1.821292 5.67629,-4.803831 7.92299,-6.627865 l 4.08488,-3.31644 0,-1.581869 0,-1.58187 1.57002,0 1.57,0 0.54819,1.024275 c 0.30149,0.563363 0.54817,1.504 0.54817,2.090321 l 0,1.066046 -2.67911,1.34563 c -2.7625,1.387528 -8.50394,5.597949 -12.66559,9.288183 l -2.37083,2.102269 1.67614,0.584304 c 0.92186,0.321369 2.56916,1.039605 3.66066,1.596077 l 1.98452,1.011759 0.82835,-0.723507 c 0.4556,-0.397946 1.61471,-1.121993 2.57584,-1.608991 l 1.7475,-0.885457 1.00417,0.318713 1.00417,0.318712 0.32325,2.223913 0.32325,2.223912 -1.42263,5.295461 c -1.669,6.212499 -1.67051,6.273449 -0.25667,10.358873 l 1.0897,3.148765 0,1.779891 0,1.779878 -1.03965,1.321719 -1.03966,1.321706 -2.71922,1.169773 -2.71922,1.169773 0.30959,1.15437 c 0.17029,0.6349 0.31286,1.57139 0.31684,2.08107 l 0.007,0.9267 1.7522,0 1.7522,0 0.8284,-0.66193 0.82839,-0.66193 2.12348,-4.765914 c 6.4848,-14.554475 8.46495,-18.66749 11.62511,-24.146623 1.9152,-3.320617 4.74912,-8.283683 6.29757,-11.029018 l 2.81538,-4.991524 0.33322,-1.517113 0.3332,-1.517098 -0.68823,-0.829266 -0.68824,-0.829281 -2.20971,0.302871 c -1.21535,0.166581 -3.25009,0.683301 -4.52167,1.148263 -2.93068,1.071615 -7.82311,2.325523 -9.16958,2.350116 l -1.03262,0.0189 0.51351,-0.513509 c 0.28243,-0.282441 2.05773,-1.099021 3.94512,-1.814643 1.88738,-0.715621 5.05094,-1.91432 7.03013,-2.66377 l 3.59852,-1.362637 2.34196,0 2.34195,0 0.73541,1.403583 0.73542,1.403596 -0.70858,2.354435 c -0.85816,2.851435 -3.07966,7.241876 -8.10603,16.020229 -2.08459,3.640622 -4.74813,8.644833 -5.91901,11.120456 -1.17087,2.475637 -3.05238,6.407509 -4.18115,8.737507 -2.70713,5.588089 -4.81571,10.45011 -4.61785,10.64798 0.0875,0.0875 4.08202,-0.79882 8.87676,-1.96955 l 8.71774,-2.128592 3.9716,-0.501887 c 2.18437,-0.276034 6.2354,-0.647512 9.00229,-0.825501 l 5.03067,-0.323614 1.2839,1.045871 1.2839,1.04587 -1.23815,1.800183 c -2.66442,3.87386 -5.02271,5.79921 -9.00805,7.35435 -1.01939,0.39776 -3.06354,1.26501 -4.54256,1.92718 -3.06519,1.37231 -10.00144,3.33019 -18.4927,5.21986 -3.20375,0.71298 -7.73138,1.78573 -10.06137,2.38389 l -4.23637,1.08755 -4.76591,2.36646 -4.76591,2.36645 -2.91251,2.608 -2.9125,2.60799 0.36625,0.3676 0.36626,0.36761 5.19398,-1.14808 5.19398,-1.14807 5.3816,-0.31032 5.38163,-0.3103 1.37008,1.47835 1.37011,1.47837 0,0.9171 c 0,1.17584 -1.47919,4.72858 -2.28993,5.49997 -0.34241,0.3258 -1.57946,1.33918 -2.74898,2.25193 l -2.1264,1.65957 -2.26438,0.60973 -2.26439,0.60974 -2.32444,1.40402 -2.32446,1.40401 -0.54605,1.19846 -0.54605,1.19845 0.40751,0.25187 c 0.36565,0.22598 2.67364,-0.0601 8.68721,-1.07684 l 1.9858,-0.33575 0,-0.45388 0,-0.4539 1.19148,0.0671 c 0.65531,0.0369 1.84472,-0.19738 2.64313,-0.52062 l 1.45166,-0.58773 0.82435,0.31634 0.82436,0.31632 0.73663,-0.99311 0.73663,-0.99312 1.07383,0.65548 1.07383,0.65548 1.28994,-0.49044 c 0.70946,-0.26974 1.45345,-0.75499 1.65329,-1.07836 l 0.36337,-0.58791 0.70002,0.58096 0.70002,0.58098 0.30007,-0.48552 0.30008,-0.48552 3.13796,-0.35502 3.13796,-0.35502 2.49368,0.62792 2.49366,0.62791 0.78773,1.88528 0.78771,1.88528 0,1.74516 0,1.74515 0.4766,0.29455 c 0.26212,0.162 0.47658,0.51879 0.47658,0.79285 l 0,0.49829 -0.69143,0 c -0.3803,0 -1.49893,0.59574 -2.48584,1.32387 l -1.79439,1.32386 -1.49899,0 -1.499,0 -3.03165,-1.11621 c -1.66741,-0.6139 -3.94109,-1.45221 -5.05263,-1.86292 l -2.02097,-0.74672 -0.62676,0.39634 -0.62676,0.39634 -2.49157,0.0581 -2.49158,0.0581 -0.6857,0.55695 c -0.37714,0.30634 -2.35377,0.92419 -4.39252,1.37301 -2.03876,0.44883 -4.66001,1.05781 -5.82501,1.35331 l -2.11818,0.53725 -1.13103,1.31083 -1.13101,1.31083 0.24176,2.55609 c 0.13298,1.40585 0.46965,4.22417 0.74819,6.26292 0.27852,2.03875 0.74631,6.08978 1.03952,9.00229 0.62445,6.20297 0.60286,6.09208 2.32078,11.91477 1.83251,6.21109 1.7965,6.6106 -0.9668,10.72331 l -0.97844,1.45626 -1.13058,-0.0161 c -0.62182,-0.009 -1.6014,-0.28911 -2.17685,-0.62277 z m 12.86714,-91.14697 0.17086,-0.88096 -0.83279,0.31956 -0.83279,0.31958 0,0.78179 0,0.7818 0.66193,-0.2204 0.66193,-0.2204 0.17086,-0.88097 z m -7.36605,-12.550519 -0.55454,-3.426219 -0.0638,-6.222161 -0.0638,-6.222175 -0.29771,0.02557 c -0.16374,0.01421 -1.84662,2.029358 -3.73975,4.478498 l -3.44206,4.452996 0.14935,1.2141 0.14933,1.214128 2.54974,2.64773 c 1.40235,1.456249 3.0921,3.440541 3.75498,4.40955 l 1.20525,1.761819 0.45378,-0.453781 0.45378,-0.453781 -0.55455,-3.42622 z m 7.69843,-0.483901 1.03279,-1.141969 -0.69193,-1.694491 c -0.38057,-0.931971 -1.04695,-2.647687 -1.48087,-3.812687 l -0.78891,-2.118181 0.2857,-2.472853 c 0.15714,-1.360065 0.90923,-4.517099 1.67132,-7.015624 l 1.38564,-4.542772 -0.3278,-0.530401 -0.32781,-0.530402 -0.89546,5.26e-4 -0.89545,5.26e-4 -1.45625,1.252445 -1.45625,1.252445 0,0.635649 c 0,0.349613 -0.65531,1.494807 -1.45625,2.544869 l -1.45626,1.909221 -0.18684,4.109662 -0.18684,4.109662 0.61642,4.632093 0.61641,4.632079 0.51628,0.964705 0.5163,0.964704 1.96664,-1.003732 c 1.08165,-0.552053 2.4314,-1.517624 2.99942,-2.145701 z M 133.23848,196.33406 c -0.44993,-0.36406 -1.21036,-1.25113 -1.68985,-1.97124 l -0.8718,-1.3093 0,-1.66889 0,-1.66889 1.3736,-2.45764 1.37361,-2.45765 0.97991,-0.52442 0.9799,-0.52443 4.57994,-9.06626 c 2.51895,-4.98646 5.41303,-10.36862 6.43126,-11.96037 1.01823,-1.59174 2.18591,-3.64674 2.59484,-4.56667 0.40893,-0.91991 1.7008,-3.34065 2.8708,-5.37939 1.17001,-2.03875 4.76185,-9.02203 7.98185,-15.5184 l 5.85454,-11.81157 0.006,-0.89753 c 0.003,-0.49364 -0.49685,-2.3273 -1.11109,-4.0748 l -1.1168,-3.17728 -0.59848,-5.26044 -0.5985,-5.26044 0.6557,-3.2123 0.6557,-3.21229 1.596,-2.503622 1.59601,-2.503611 1.91696,-0.529293 1.91697,-0.529293 1.24804,0.817744 c 2.22303,1.45659 5.73824,5.697455 6.87093,8.289325 l 0.63482,1.4526 -0.52205,2.75275 -0.52205,2.75275 -0.7085,1.0901 c -0.38968,0.59956 -1.00855,2.04329 -1.37526,3.20829 -0.3667,1.165 -1.25807,2.99561 -1.98079,4.06802 l -1.31407,1.94984 0.33051,1.04132 c 0.18177,0.57273 1.0385,2.01868 1.90382,3.21324 l 1.57333,2.17192 0.7194,0 0.7194,0 0.85356,-3.57445 c 0.92976,-3.89347 3.12361,-17.16731 4.09164,-24.756258 0.33435,-2.621263 1.04932,-6.791434 1.58882,-9.267057 2.00516,-9.201347 3.66652,-18.32633 3.66851,-20.149227 l 0.001,-1.879882 -0.63545,-0.635465 -0.63547,-0.63545 -0.97948,0 c -0.53871,0 -1.7421,0.383072 -2.6742,0.851259 l -1.69473,0.851274 -2.51535,2.438485 -2.51534,2.438499 0,0.675188 0,0.675202 -1.98579,1.266539 c -1.0922,0.696598 -2.46239,1.836181 -3.04489,2.53241 -2.62438,3.136731 -7.57575,11.543535 -10.08995,17.131396 -0.91731,2.038749 -2.56422,5.596487 -3.6598,7.906067 -1.09558,2.30958 -2.69896,6.24147 -3.56306,8.73751 -3.6148,10.44166 -5.78049,17.31142 -6.58042,20.87371 l -0.85045,3.7873 -0.0725,3.88173 -0.0725,3.88172 -1.02791,0.75181 -1.02792,0.75178 -1.35504,-0.0114 -1.35504,-0.0114 -1.09321,-0.91494 c -1.39876,-1.17062 -2.93916,-3.58501 -3.79346,-5.94566 l -0.67073,-1.85341 0.32445,-1.58863 c 0.17846,-0.87375 0.51498,-1.82693 0.74781,-2.11818 0.55931,-0.69962 2.28159,-7.75347 3.42633,-14.03297 1.19005,-6.52804 3.12285,-13.9568 5.09771,-19.593195 l 1.57709,-4.501144 3.49449,-7.148875 c 1.92197,-3.931872 4.17321,-8.173563 5.00276,-9.425979 0.82955,-1.252417 1.50828,-2.391729 1.50828,-2.531813 0,-0.572342 7.6767,-11.724991 10.31473,-14.985156 3.0755,-3.800795 5.29899,-6.174623 17.28928,-18.458302 4.33156,-4.437539 7.87557,-8.309854 7.87557,-8.605124 0,-0.781928 -0.86342,-0.656889 -1.77776,0.257464 -0.43688,0.436875 -0.95249,0.794317 -1.14578,0.794317 -1.37863,0 -14.64425,12.299762 -17.68835,16.400474 l -1.28346,1.728943 -3.74722,2.385435 -3.74723,2.385436 -2.14488,2.185666 c -1.17968,1.202108 -4.12339,3.817702 -6.5416,5.812407 l -4.3967,3.626742 -0.83304,1.451475 -0.83301,1.451461 -2.15721,0.638675 c -1.18648,0.351276 -2.42577,0.756994 -2.754,0.901596 l -0.59678,0.26292 -1.16259,-2.230476 -1.16259,-2.230461 -0.296,-3.530601 -0.29598,-3.530601 0.636,-2.07215 c 0.3498,-1.139681 0.84966,-2.548733 1.11077,-3.131233 0.86632,-1.932549 3.26425,-8.973221 3.69723,-10.855689 0.23448,-1.019374 1.02795,-3.044895 1.76331,-4.501144 0.73534,-1.456249 2.12563,-4.973637 3.08952,-7.81642 l 1.75253,-5.168674 0.88395,-0.280552 0.88395,-0.280566 1.2365,0.337864 1.23652,0.33785 1.64796,2.244711 c 0.9064,1.234587 2.27693,3.317904 3.04562,4.629593 l 1.39765,2.384896 -0.34095,3.261898 -0.34093,3.261898 -0.45411,0 -0.45411,0 0,1.523804 0,1.523791 -0.79431,0.659233 -0.79432,0.659219 0,0.79065 0,0.790651 -2.41672,3.635266 c -1.32919,1.999394 -2.63982,3.773148 -2.91251,3.941675 -0.27267,0.168527 -0.49578,0.546598 -0.49578,0.840163 l 0,0.53374 2.51535,-2.001099 c 1.38343,-1.100597 3.95187,-3.320787 5.70763,-4.933742 6.80227,-6.249041 8.06945,-7.35643 12.42932,-10.862111 2.47562,-1.990585 4.62028,-3.762677 4.76591,-3.937981 0.67556,-0.813197 6.89472,-5.851606 9.26705,-7.507624 3.85486,-2.690906 8.23027,-5.054192 10.12825,-5.470565 l 1.65552,-0.363182 0.85983,0.859827 0.85983,0.859826 0,1.797693 0,1.797693 -1.9858,2.184998 c -1.09219,1.201768 -4.60448,4.486384 -7.8051,7.29916 -6.36536,5.594042 -16.01355,15.181359 -21.13388,21.000529 -3.12753,3.55437 -7.73209,9.852284 -7.73209,10.575592 0,0.190236 -1.50523,2.892764 -3.34496,6.005613 -1.83975,3.112849 -4.33021,7.685229 -5.53436,10.160866 l -2.18939,4.50113 -2.08225,6.354559 c -1.14524,3.495 -2.37283,7.66517 -2.728,9.26706 l -0.64577,2.91249 0.2281,1.32387 0.22809,1.32386 0.91848,-2.11818 c 0.50517,-1.165 1.23247,-2.83308 1.61623,-3.70683 0.38374,-0.87375 1.4637,-3.61415 2.39992,-6.08977 2.19817,-5.812637 7.42243,-16.690774 9.80302,-20.412235 1.02325,-1.599587 1.86044,-3.166397 1.86044,-3.481785 l 0,-0.573435 4.8983,-4.857308 4.89831,-4.857321 4.13113,-2.573895 c 2.27213,-1.415645 5.01254,-2.888601 6.08978,-3.273236 l 1.95864,-0.69934 1.96088,-0.0233 1.96088,-0.0233 1.33861,0.609906 1.3386,0.609905 0.38722,1.111125 0.38722,1.111111 -0.0999,4.236363 -0.0999,4.236377 -1.371,4.765911 c -2.07816,7.224188 -2.72681,9.696174 -3.68215,14.032968 -0.48119,2.184374 -1.33387,5.885675 -1.89485,8.225107 l -1.01993,4.253522 -0.001,3.4249 -0.001,3.4249 -1.6173,6.35454 c -0.88952,3.495 -1.81771,7.40163 -2.06263,8.68136 l -0.44533,2.32682 0.51999,1.49164 0.51999,1.49164 -0.83889,1.19768 c -0.46139,0.65872 -0.83888,1.61003 -0.83888,2.11402 0,1.45445 -1.02196,3.26818 -2.42613,4.30581 l -1.29462,0.95668 -2.13617,-1.2006 -2.13618,-1.20059 -1.60254,-2.80097 -1.60256,-2.80097 -0.51505,0 -0.51504,0 -1.29433,2.78012 c -0.71188,1.52905 -1.29665,3.1051 -1.2995,3.50234 -0.003,0.3972 -0.46655,1.58868 -1.03045,2.64771 -2.67755,5.0292 -9.03576,18.69702 -9.03576,19.42429 0,0.62876 1.0704,0.0473 3.98201,-2.16332 1.74177,-1.32237 3.88173,-2.75166 4.75549,-3.17616 0.87375,-0.42451 2.30352,-1.24133 3.17727,-1.81517 0.87375,-0.57383 2.32133,-1.37874 3.21685,-1.78871 0.89551,-0.40997 2.81002,-1.59444 4.25446,-2.63216 1.44444,-1.03773 4.88191,-2.96867 7.63884,-4.291 l 5.0126,-2.40422 3.15615,-0.8055 c 1.73588,-0.44301 3.83179,-0.80548 4.65759,-0.80548 l 1.50146,0 1.29979,1.2998 1.2998,1.29978 0.0905,1.48033 c 0.204,3.33406 0.15209,4.25675 -0.39725,7.06139 -0.69851,3.56606 -2.94078,9.85407 -4.8491,13.59838 -0.77466,1.51995 -1.3017,2.84576 -1.17122,2.94628 0.13042,0.10045 1.8245,1.47816 3.76452,3.06146 1.94004,1.58331 4.48567,3.6532 5.65701,4.59976 l 2.12968,1.72103 0.76509,0 c 1.09178,0 1.78524,1.04283 2.11284,3.17728 0.15645,1.01937 0.36341,2.33 0.45991,2.9125 l 0.17544,1.05909 -2.00259,-0.11848 -2.00257,-0.11849 -2.28562,-1.57255 -2.28563,-1.57257 -0.88814,-1.35547 c -0.48848,-0.74552 -2.17726,-2.66537 -3.75285,-4.26634 l -2.86472,-2.91087 -0.81662,0 -0.81663,0 -0.91485,1.45625 c -0.50316,0.80094 -1.83155,2.5763 -2.95195,3.94526 l -2.03711,2.48899 -1.69378,1.02506 c -0.93158,0.56378 -2.22428,1.18564 -2.87268,1.3819 l -1.17891,0.35686 -2.79268,-2.67889 c -1.53598,-1.47338 -2.94906,-2.67913 -3.14017,-2.67941 -0.19112,-3.2e-4 -1.23533,-1.23637 -2.32045,-2.74679 l -1.97297,-2.74623 -0.46563,-1.68636 -0.46563,-1.68638 0.42475,-2.04436 0.42476,-2.04435 2.16425,-1.5211 2.16426,-1.52111 3.10957,-0.0257 3.10958,-0.0257 3.32593,1.21665 c 1.82925,0.66915 3.45181,1.42034 3.60567,1.66931 0.15388,0.24896 0.68272,0.44952 1.17523,0.4457 l 0.89544,-0.007 1.43774,-3.03794 c 3.51716,-7.43181 5.71114,-13.81474 5.71114,-16.61544 l 0,-1.40128 -0.80894,-0.31042 -0.80893,-0.31041 -3.41049,0.79093 -3.4105,0.79095 -3.06183,1.63483 c -6.62627,3.53802 -11.8156,6.92254 -15.27501,9.96244 -1.18351,1.03999 -2.97072,2.6093 -3.9716,3.48738 -1.00087,0.87808 -3.60699,3.60915 -5.79138,6.06905 -2.18437,2.45991 -5.18165,5.7925 -6.6606,7.40578 -1.47895,1.61327 -4.16484,4.98704 -5.96864,7.49726 l -3.27965,4.56402 -1.13409,3.35825 -1.1341,3.35826 -2.53625,2.53625 -2.53626,2.53625 -0.71832,0 c -0.39508,0 -1.08645,-0.29787 -1.53638,-0.66193 z m 50.61922,-24.26352 1.42609,-2.15498 -0.18293,-0.54883 -0.18295,-0.54883 -3.11615,-1.26779 -3.11616,-1.26779 -1.69861,0 -1.69862,0 -0.63812,0.76892 -0.63815,0.7689 0.34427,1.08471 c 0.18935,0.59658 1.10368,1.88989 2.03183,2.87403 l 1.68754,1.78932 1.05683,0.26723 c 0.58125,0.14698 1.56131,0.29487 2.17792,0.32865 l 1.12111,0.0614 1.4261,-2.15498 z m -12.94865,-64.24768 0.68542,-2.85716 -0.34616,-1.37922 -0.34616,-1.3792 -0.75298,0 -0.75298,0 -0.37985,0.61461 -0.37986,0.61462 0.11522,3.1936 c 0.11749,3.25696 0.32472,4.04989 1.05817,4.04989 l 0.41374,0 0.68541,-2.85714 z m 45.18478,62.16004 -1.16374,-0.46865 -0.89693,-1.74836 c -0.4933,-0.96157 -1.28699,-2.24948 -1.76375,-2.86199 l -0.86683,-1.11366 0.0783,-2.59316 c 0.0431,-1.42625 0.1094,-2.87313 0.14739,-3.21533 l 0.0691,-0.62215 2.91249,-1.57748 2.91252,-1.57748 0,0.74338 0,0.74338 0.56856,0 c 0.88213,0 8.44012,-2.57482 10.92891,-3.72321 1.22673,-0.56604 3.36754,-1.28401 4.75736,-1.59548 l 2.52694,-0.5663 0.80287,-0.70725 0.80287,-0.70726 2.81779,-0.3767 2.81779,-0.37672 0.28376,-0.73945 0.28375,-0.73945 1.28583,0 1.28585,0 1.32176,-0.86605 1.32176,-0.86605 0.31063,0.31064 0.31065,0.31063 2.63019,-0.99938 2.63019,-0.9994 0.7249,0.27818 0.72491,0.27816 1.20149,-0.84155 1.20146,-0.84154 1.96911,0 1.9691,0 0.32728,-0.52955 0.32728,-0.52955 0.96731,0 c 0.53202,0 1.64986,-0.35598 2.48409,-0.79105 0.83424,-0.43508 2.04174,-0.79253 2.68334,-0.79432 0.64162,-0.001 1.76363,-0.2753 2.49336,-0.60778 l 1.32678,-0.60454 2.53734,0.69327 2.53734,0.69328 1.45624,1.59527 1.45625,1.59526 0,0.99854 c 0,0.54918 -0.23166,1.4314 -0.5148,1.96046 l -0.51483,0.96195 -2.53006,0.35476 c -3.07282,0.43086 -9.02326,2.31468 -9.43968,2.98845 l -0.30178,0.48829 -1.02784,0 -1.02784,0 0,-0.81094 0,-0.81094 0.75339,-0.28911 c 0.41435,-0.159 0.89523,-0.65876 1.0686,-1.11057 l 0.31522,-0.82146 -1.73054,0.36905 c -0.95179,0.20298 -3.23039,0.59159 -5.06355,0.86357 l -3.33302,0.49452 -1.98707,1.01372 c -1.09288,0.55755 -2.86111,1.1777 -3.92937,1.37811 l -1.94229,0.36437 -0.61326,0.73894 -0.61326,0.73892 -1.14704,0 -1.14707,0 -2.07735,1.05908 c -1.14254,0.5825 -2.39416,1.0591 -2.78138,1.0591 -0.38722,0 -2.1256,0.73983 -3.86305,1.64408 l -3.15901,1.64409 -1.09173,1.53319 c -0.60044,0.84325 -1.32344,1.53318 -1.60666,1.53318 -0.28321,0 -1.22015,0.52141 -2.08213,1.15868 l -1.56719,1.15869 0,0.63187 0,0.63189 -1.72101,1.32291 c -0.94656,0.72758 -2.49331,2.06649 -3.43723,2.97534 l -1.71622,1.65246 -2.25538,-0.0335 c -1.24047,-0.0185 -2.77908,-0.24445 -3.41914,-0.50221 z m 132.9885,-8.63902 c -1.18272,-0.63323 -2.76159,-1.63891 -3.5086,-2.23484 l -1.3582,-1.08352 -1.12494,-2.20504 -1.12495,-2.20506 0,-1.15967 0,-1.15966 -1.31541,-2.70064 c -1.74234,-3.57713 -5.05557,-11.89097 -5.40245,-13.55633 -0.15168,-0.72812 -1.47959,-4.47186 -2.95096,-8.31939 l -2.67518,-6.99554 0.67661,-0.81527 c 0.37215,-0.4484 0.86015,-0.81527 1.08446,-0.81527 0.22433,0 2.57608,2.91913 5.22613,6.48694 2.65004,3.56781 5.00559,6.72523 5.23452,7.01648 0.22895,0.29126 1.83735,2.55507 3.57423,5.03069 3.49055,4.9752 5.12915,6.67536 7.19545,7.46582 l 1.38033,0.52803 0.72904,1.36224 0.72904,1.36222 2.77346,1.26862 c 2.82804,1.29357 12.48548,4.0795 13.92487,4.01697 0.43687,-0.019 1.2709,0.1635 1.8534,0.40551 0.5825,0.242 1.47611,0.5733 1.98579,0.73619 l 0.92672,0.29617 0,1.01087 0,1.01087 -0.66193,0.53164 c -0.7642,0.61375 -2.23113,0.87041 -12.14033,2.12396 l -7.24203,0.91613 -0.41784,0.42274 c -0.36166,0.36591 -4.97808,2.55926 -5.15579,2.44961 -0.0358,-0.022 -1.03273,-0.55825 -2.21544,-1.19147 z m -54.77582,-0.7172 c -1.01937,-0.082 -3.81935,-0.43031 -6.22216,-0.77407 l -4.36874,-0.62504 0,-1.23853 0,-1.23854 0.66193,-0.0268 c 4.19134,-0.1704 10.21555,-1.75311 14.59235,-3.83377 l 2.28042,-1.08408 4.8132,-5.77451 c 2.64726,-3.17599 5.84787,-7.34983 7.11246,-9.2752 l 2.29926,-3.50068 2.38951,-6.14255 c 2.39132,-6.14715 2.73579,-7.43162 1.99238,-7.42926 -1.4819,0.004 -10.57913,6.97864 -16.32938,12.51809 l -3.92577,3.78181 -10e-4,0.71931 c -0.001,0.39562 -0.47417,1.49377 -1.0513,2.44034 l -1.04933,1.72101 -0.7098,0 -0.70978,0 -1.11692,-1.19147 -1.11691,-1.19148 -0.36702,-2.7766 -0.36702,-2.7766 0.64247,-0.77412 0.64246,-0.77411 1.00306,0.62641 1.00307,0.62643 1.73189,-0.98702 c 0.95253,-0.54286 2.68507,-1.86404 3.85007,-2.93595 1.165,-1.07192 4.50115,-3.70895 7.41364,-5.86009 2.91251,-2.15113 5.41462,-4.04387 5.56025,-4.20608 0.14562,-0.16222 1.28621,-0.95714 2.53465,-1.76652 1.24842,-0.80936 2.85101,-1.97688 3.56129,-2.59445 l 1.29143,-1.12288 0.77259,-2.69605 c 0.42493,-1.48281 1.13623,-4.6024 1.58065,-6.93239 0.44443,-2.33002 1.2998,-6.381031 1.90084,-9.002293 2.53674,-11.063456 2.91163,-14.403068 4.45754,-39.709292 l 0.74362,-12.172919 -0.7429,-1.4366 c -0.97953,-1.894218 -0.93724,-2.720486 0.21188,-4.139583 l 0.95476,-1.179079 3.14922,0.675458 3.14922,0.675473 1.23423,1.106877 1.23421,1.106891 -0.25428,2.118181 c -0.1398,1.164999 -0.5009,3.190521 -0.80236,4.501145 -0.30143,1.310624 -1.15942,5.727576 -1.90664,9.81543 l -1.35844,7.432481 0,5.030196 0,5.030196 -1.31862,7.924849 -1.31862,7.924835 -1.65123,5.560243 c -1.98895,6.697451 -3.68093,13.388941 -3.4451,13.624781 0.0943,0.0943 1.34233,-0.61625 2.77322,-1.57916 1.43089,-0.96291 5.81316,-3.60158 9.73837,-5.86371 3.92522,-2.262116 7.72076,-4.555999 8.43452,-5.097496 l 1.29777,-0.984538 -0.59232,-0.711885 c -0.32577,-0.391525 -1.92911,-1.41026 -3.56295,-2.263849 -1.63384,-0.85359 -3.18871,-1.814771 -3.45526,-2.135941 l -0.48465,-0.583963 0.42126,-0.68161 0.42127,-0.681623 3.12288,0.558844 3.12288,0.55883 5.03068,0.107123 5.0307,0.107123 0.9267,0.449164 0.92671,0.449164 0,0.731193 0,0.731194 -2.06201,1.633129 c -1.13409,0.898229 -2.29639,1.633144 -2.58288,1.633144 -0.28649,0 -0.8337,0.376906 -1.21604,0.837592 -0.38233,0.460672 -1.45686,1.235141 -2.38783,1.721016 -0.93098,0.48589 -3.84552,2.313205 -6.47676,4.060699 -2.63123,1.74752 -6.64967,4.31383 -8.92986,5.70295 -2.28018,1.3891 -5.78435,3.77206 -7.78702,5.29546 l -3.64123,2.7698 -1.79649,4.76591 c -4.4617,11.8365 -5.74663,14.96039 -6.9373,16.8658 -0.7006,1.12118 -1.87799,3.14669 -2.61642,4.50115 -0.73841,1.35443 -2.16823,3.77324 -3.17738,5.37512 -1.00914,1.60187 -2.94869,4.7987 -4.31012,7.10405 l -2.4753,4.19155 -2.11819,1.1605 -2.11819,1.16049 -2.64773,0.235 c -1.45625,0.12929 -3.48175,0.16793 -4.50113,0.086 z m -33.89093,-6.96058 c 0,-0.62785 3.43011,-3.27014 4.24516,-3.27014 l 0.60901,0 -0.18143,0.54426 c -0.0997,0.29935 -1.19196,1.1469 -2.42707,1.88342 l -2.24567,1.33916 0,-0.4967 z m 142.2189,-16.93051 -0.84362,-2.5399 0.50125,-2.62317 c 0.27568,-1.44275 1.21644,-4.72051 2.09055,-7.28392 l 1.58931,-4.66074 1.36452,-2.32837 c 0.75048,-1.28061 1.59998,-2.47391 1.88778,-2.65177 l 0.52327,-0.32339 0,0.33024 c 0,0.18164 -0.45296,1.44674 -1.00656,2.81137 l -1.00658,2.48112 -0.53072,4.50114 c -0.29191,2.47563 -0.54359,6.18629 -0.55929,8.24591 l -0.0286,3.74475 -0.53923,1.41831 -0.53924,1.41832 -1.02965,0 -1.02963,0 -0.84363,-2.5399 z m -146.96931,-9.24634 c -1.20266,-1.52694 -3.28926,-4.02733 -4.63691,-5.55639 l -2.45025,-2.78012 -0.70053,0 -0.70055,0 0,0.46921 0,0.46921 -1.84823,0.87704 -1.84823,0.87704 -0.6671,1.20856 c -0.36692,0.6647 -1.68618,2.11783 -2.93169,3.22915 l -2.26456,2.02061 -0.36783,-0.36783 -0.36783,-0.36784 0.52789,-0.36837 c 0.90351,-0.63048 4.1177,-4.92214 6.15917,-8.22386 l 1.9518,-3.15673 -1.58023,-2.70185 c -0.86911,-1.48601 -2.52189,-4.54335 -3.67283,-6.79407 l -2.0926,-4.09223 0,-3.488607 0,-3.488618 0.54817,-1.02429 0.54817,-1.024276 1.10415,0 1.10415,0 2.43293,1.456249 2.43293,1.456263 2.82008,2.912498 2.8201,2.912501 1.53708,2.65924 1.53711,2.65922 0.65549,2.45082 0.65549,2.45081 -0.88996,1.35826 c -0.48949,0.74704 -0.88998,1.72409 -0.88998,2.17122 l 0,0.81294 0.75864,0 0.75863,0 0.3889,-1.19148 c 0.2139,-0.65531 0.43277,-1.54892 0.48638,-1.9858 0.28442,-2.31749 0.96097,-4.81234 1.37431,-5.06778 l 0.46952,-0.29017 0,-1.36081 0,-1.36082 1.37475,-4.30055 c 0.75612,-2.365302 2.16413,-6.56437 3.12891,-9.331243 0.96479,-2.766873 2.51192,-7.2945 3.43808,-10.061373 0.92616,-2.766872 1.86948,-5.268978 2.09627,-5.560228 1.30863,-1.680596 3.30055,-9.796605 2.40439,-9.796605 -0.14667,0 -1.1559,0.476584 -2.24273,1.059098 l -1.97603,1.059084 -1.21255,0 -1.21254,0 -3.69593,1.861242 c -2.03276,1.023693 -5.51766,3.168343 -7.7442,4.765912 -2.22654,1.597569 -4.32718,2.904669 -4.66808,2.904669 -0.3409,0 -1.09527,0.53617 -1.67639,1.191482 -2.03928,2.299665 -10.24155,9.544695 -11.60893,10.254094 -0.75998,0.394296 -2.30238,0.964776 -3.42753,1.267747 l -2.04574,0.550859 -1.08748,1.382513 -1.08748,1.382513 0.001,3.767792 10e-4,3.767794 0.92587,1.71177 c 0.50925,0.94146 1.70836,3.03713 2.66473,4.65705 l 1.73883,2.9453 0.52864,4.21605 0.52865,4.21605 -0.54645,1.02106 c -0.30056,0.56159 -0.54646,1.41708 -0.54646,1.90109 0,0.484 -0.37837,2.18158 -0.84083,3.77237 l -0.84083,2.89235 -1.13569,-0.16312 -1.13571,-0.16312 -1.41712,-2.91251 -1.41712,-2.9125 0.29297,-4.07951 0.29298,-4.0795 -0.66062,-4.12846 -0.66061,-4.12845 -1.22977,-2.91251 -1.22979,-2.9125 0.47742,-0.490546 0.47741,-0.490564 1.06056,0.9598 1.06056,0.95979 0.32051,-0.83519 0.32049,-0.835175 -0.27777,-3.605658 c -0.15286,-1.983099 -0.43567,-4.611891 -0.62856,-5.841746 l -0.35069,-2.236102 1.11303,-2.299197 1.11301,-2.299197 1.72134,-0.87176 c 0.94673,-0.479454 3.27025,-1.738832 5.16338,-2.798612 3.564,-1.995146 12.3443,-6.637213 18.79888,-9.938792 4.72334,-2.416037 12.16963,-5.253819 17.00695,-6.481358 l 3.7683,-0.956266 2.51461,0.960329 2.5146,0.960343 -0.27973,2.085462 -0.27972,2.085476 -1.35148,2.745832 c -1.28016,2.600946 -3.88138,8.737564 -7.24249,17.085947 -3.09371,7.684235 -7.26486,23.776124 -9.2928,35.850784 l -0.86988,5.17949 -0.95162,0.50929 -0.95162,0.50929 -2.18666,-2.77628 z m -7.47809,-20.39538 c -0.67909,-1.90401 -4.02159,-6.44483 -5.02843,-6.83119 l -0.79331,-0.304433 -0.27754,0.277543 -0.27754,0.27754 1.31405,2.59313 1.31405,2.59314 1.71523,1.67696 1.71524,1.67698 0.41674,-0.25757 0.41674,-0.25756 -0.51523,-1.44454 z m 166.34955,8.64476 -0.63603,-0.76637 0.38324,-13.53137 0.38325,-13.531361 0.45273,0 0.45271,0 0,0.761639 c 0,0.418903 0.50034,4.648645 1.11185,9.39944 l 1.11184,8.637802 -0.22824,4.07454 -0.22826,4.07454 -0.68365,0.82376 c -0.84933,1.02336 -1.30745,1.03578 -2.11944,0.0574 z m 7.52284,-12.22547 -1.19148,-0.8364 0,-2.28672 c 0,-1.25772 0.14894,-3.031417 0.33098,-3.94158 l 0.33095,-1.654824 0.57586,0 c 0.3167,0 1.11736,0.655312 1.77922,1.456249 l 1.20337,1.456249 1.6569,-1.853414 c 0.91129,-1.019375 2.64253,-3.390077 3.8472,-5.26824 l 2.19031,-3.414839 0.70802,-0.219091 0.70802,-0.219091 -2.62532,4.957781 c -1.44392,2.726794 -3.55376,6.623375 -4.68853,8.65908 l -2.0632,3.70129 -0.78541,0.14997 -0.7854,0.14998 -1.19149,-0.8364 z m 0.40895,-15.894881 -0.0114,-1.085566 0.54217,-0.542165 0.54216,-0.542165 -0.0322,-2.079083 c -0.0178,-1.143504 -0.047,-2.639192 -0.0654,-3.323771 l -0.0331,-1.244688 0.54821,-0.548203 0.5482,-0.548217 0.82292,0.822915 0.82291,0.822916 1.54985,0.340407 1.54984,0.340407 0.26774,0.697707 0.26774,0.697706 -0.44196,1.959614 c -0.55743,2.471531 -0.65837,2.561662 -2.95882,2.641536 l -1.90093,0.06606 -1.00291,1.305097 -1.00292,1.305112 -0.0114,-1.085581 z m -9.01407,-9.464708 0,-0.753698 1.25374,-1.496882 c 2.30003,-2.746116 6.00747,-8.85932 8.23707,-13.582127 l 2.20541,-4.671604 0.44264,-2.369338 c 0.24346,-1.303137 0.58023,-2.506922 0.74839,-2.67508 l 0.30573,-0.305727 0.84105,0.322748 0.84108,0.322747 0.7704,1.843853 0.77042,1.843838 0,1.539461 c 0,0.846699 -0.15449,2.31187 -0.3433,3.255931 l -0.3433,1.716498 -7.33511,7.238608 -7.33512,7.238623 0,0.642909 0,0.642923 -0.52955,0 -0.52955,0 0,-0.753683 z"
     id="path3081"
     inkscape:connector-curvature="0" />
  <flowRoot
     xml:space="preserve"
     id="flowRoot3127"
     style="font-size:32px;font-style:normal;font-weight:normal;line-height:125%;letter-spacing:0px;word-spacing:0px;fill:#ffffff;fill-opacity:1;stroke:none;font-family:Sans"
     transform="translate(91.72034,-0.597458)"><flowRegion
       id="flowRegion3129"><rect
         id="rect3131"
         width="498.55933"
         height="59.512711"
         x="12.351695"
         y="218.96187"
         style="fill:#ffffff" /></flowRegion><flowPara
       id="flowPara3133"
       style="font-size:40px;font-style:normal;font-variant:normal;font-weight:normal;font-stretch:normal;text-align:start;text-anchor:start;fill:#ffffff;font-family:Times New Roman;-inkscape-font-specification:Times New Roman">FUDAN UNIVERSITY</flowPara></flowRoot></svg>
